<?xml version="1.0" encoding="utf-8"?>
<!-- Generator: Adobe Illustrator 18.0.0, SVG Export Plug-In . SVG Version: 6.00 Build 0)  -->
<!DOCTYPE svg PUBLIC "-//W3C//DTD SVG 1.1//EN" "http://www.w3.org/Graphics/SVG/1.1/DTD/svg11.dtd">
<svg version="1.1" id="Capa_1" xmlns="http://www.w3.org/2000/svg" xmlns:xlink="http://www.w3.org/1999/xlink" x="0px" y="0px"
	 viewBox="0 0 26 26" enable-background="new 0 0 26 26" xml:space="preserve">
<g id="Page-1">
	<g id="Catalog-pg1" transform="translate(-609.000000, -731.000000)">
		<g id="products" transform="translate(132.000000, 622.000000)">
			<g id="line-1">
				<g id="product-card-hover" transform="translate(300.000000, 0.000000)">
					<g id="money_11_" transform="translate(71.000000, 100.000000)">
						<g transform="translate(108.000000, 11.000000)">
							<g>
								
									<radialGradient id="Oval-Copy-3_1_" cx="-274.6538" cy="415.8889" r="0.6863" gradientTransform="matrix(26 0 0 -26 7152 10824.1104)" gradientUnits="userSpaceOnUse">
									<stop  offset="0" style="stop-color:#FFD009"/>
									<stop  offset="1" style="stop-color:#F7AF1A"/>
								</radialGradient>
								<circle id="Oval-Copy-3_11_" fill="url(#Oval-Copy-3_1_)" cx="11" cy="11" r="13"/>
								<path id="Shape_23_" fill="#F8B017" d="M11,1.1c-5.5,0-9.9,4.5-9.9,9.9c0,5.5,4.5,9.9,9.9,9.9c5.5,0,9.9-4.5,9.9-9.9
									C20.9,5.5,16.5,1.1,11,1.1z M11,19.7c-4.8,0-8.7-3.9-8.7-8.7S6.2,2.3,11,2.3s8.7,3.9,8.7,8.7S15.8,19.7,11,19.7z"/>
								<path id="Shape_22_" fill="#F8B017" d="M11,3.3c-4.2,0-7.7,3.5-7.7,7.7c0,4.2,3.5,7.7,7.7,7.7c4.2,0,7.7-3.5,7.7-7.7
									C18.7,6.8,15.2,3.3,11,3.3z M11,17.5c-3.6,0-6.5-2.9-6.5-6.5S7.4,4.5,11,4.5s6.5,2.9,6.5,6.5S14.6,17.5,11,17.5z"/>
							</g>
						</g>
					</g>
				</g>
			</g>
		</g>
	</g>
</g>
</svg>
